<?xml version="1.0" encoding="utf-8"?>
<!-- Generator: Adobe Illustrator 25.4.1, SVG Export Plug-In . SVG Version: 6.00 Build 0)  -->
<svg version="1.1" id="Layer_1" xmlns="http://www.w3.org/2000/svg" xmlns:xlink="http://www.w3.org/1999/xlink" x="0px" y="0px"
	 viewBox="0 0 1600 1200" style="enable-background:new 0 0 1600 1200;" xml:space="preserve">
<style type="text/css">
	.st0{fill-rule:evenodd;clip-rule:evenodd;fill:#BFBFBF;}
	.st1{fill-rule:evenodd;clip-rule:evenodd;fill:#75CBB3;}
	.st2{fill-rule:evenodd;clip-rule:evenodd;fill:#006CE2;}
	.st3{fill-rule:evenodd;clip-rule:evenodd;fill:#DC2249;}
	.st4{fill-rule:evenodd;clip-rule:evenodd;fill:#7A4865;}
	.st5{fill-rule:evenodd;clip-rule:evenodd;fill:#F6CB51;}
	.st6{fill-rule:evenodd;clip-rule:evenodd;fill:#3D2C42;}
	.st7{fill-rule:evenodd;clip-rule:evenodd;fill:#F2F2F2;}
</style>
<desc>Created with Sketch.</desc>
<g id="Patterns">
	<g id="Oreti">
		<g>
			<path id="Shape" class="st0" d="M1600-90.1V446h-92c-50.8,0-92-41.1-92-91.9V-90.1c0-50.8,41.2-91.9,92-91.9
				S1600-140.9,1600-90.1z"/>
			<path id="Shape_00000079461179312064771030000005162428056584889497_" class="st1" d="M1049,185.9V1154
				c-27.5-40.9-58.1-61.3-92-61.3c-50.8,0-92-41.1-92-91.9V185.9c0-50.8,41.2-91.9,92-91.9S1049,135.1,1049,185.9z"/>
			<path id="Shape_00000142857081298588963170000016797448174836992657_" class="st2" d="M1049-218.2v999.1
				c-27.5-61.3-58.1-91.9-92-91.9c-50.8,0-92-41.1-92-91.9v-815.2c0-50.7,41.2-91.9,92-91.9S1049-268.8,1049-218.2z"/>
			<path id="Shape_00000038386865808222750420000001228835304583173021_" class="st3" d="M1600,905.9V1442h-92
				c-50.8,0-92-41.1-92-91.9V905.9c0-50.8,41.2-91.9,92-91.9S1600,855.1,1600,905.9z"/>
			<path id="Shape_00000164495741307867221260000007573662522804339131_" class="st4" d="M1049-56h217.1v5.3H1416v863.2h-367V-56z
				 M1416,815.5v27h-367v-27H1416z M1416,847.5V872h-367v-24.5H1416z M1416,880v21.5h-367V880H1416z M1416,912.5v18h-367v-18H1416z
				 M1416,943.5V961h-367v-17.5H1416z M1416,977v12c0,0.1,0,0.3,0,0.5h-367c0-0.1,0-0.3,0-0.5v-12H1416z M1413.9,1008.5
				c-0.8,3.8-1.8,7.4-3.1,11h-356.6c-1.3-3.6-2.3-7.2-3.1-11H1413.9z M1400.3,1040.5c-2,3-4.2,5.8-6.5,8.5h-322.6
				c-2.3-2.7-4.5-5.5-6.5-8.5H1400.3z M1103.3,1073h258.4c-11.5,5.1-24.2,8-37.5,8h-183.4C1127.4,1081,1114.7,1078.1,1103.3,1073
				L1103.3,1073z"/>
			<g id="Shape_00000096035702135645225780000017024215717153549490_">
				<g transform="translate(247.000000, -57.000000)">
					<g id="Shape_00000065038979666297425760000014429107021166380944_">
						<path id="path-3_00000030455444756100680800000016625966699103455372_" class="st5" d="M1169.1,0.7v820.1
							c-101.3,0-183.5-82.3-183.5-183.8l0-111c0-50.8-41.1-91.9-91.8-91.9c-50.7,0-91.8-41.2-91.8-91.9V0.7H1169.1L1169.1,0.7z"/>
					</g>
				</g>
			</g>
			<path id="Shape_00000093897625776542494360000014583622493352391858_" class="st6" d="M590,445c46.2,0,84.4-34,91-78.4v790.3
				c-27.5-61.3-58.1-91.9-92-91.9c-50.8,0-92-41.1-92-91.9V445H590z"/>
			<g id="Shape_00000116227653581425078970000012246331122398600890_">
				<g transform="translate(982.000000, 629.000000)">
					<g id="Shape_00000101809024955459497240000001370432607002137522_">
						<path id="path-5_00000023974371971748911630000003786204608211159947_" class="st3" d="M-301,91.8v443.8
							c0,50.8-41.1,91.8-91.9,91.8s-91.9-41.1-91.9-91.8V91.8c0-50.7,41.1-91.8,91.9-91.8S-301,41.1-301,91.8z"/>
					</g>
				</g>
			</g>
			<path id="Shape_00000165913782409605986370000000332149884620827323_" class="st1" d="M1493,672.6c0-8.9,7.2-16.1,16-16.1
				s16,7.2,16,16.1c0,8.9-7.2,16.1-16,16.1S1493,681.5,1493,672.6z M1493,750.9c0-8.9,7.2-16.1,16-16.1s16,7.2,16,16.1
				s-7.2,16.1-16,16.1S1493,759.8,1493,750.9z M1493,516.1c0-8.9,7.2-16.1,16-16.1s16,7.2,16,16.1s-7.2,16.1-16,16.1
				S1493,525,1493,516.1z M1493,594.4c0-8.9,7.2-16.1,16-16.1s16,7.2,16,16.1c0,8.9-7.2,16.1-16,16.1S1493,603.3,1493,594.4z"/>
			<g id="Shape_00000100354143547676817740000002742089057117209519_">
				<g transform="translate(624.000000, -44.000000)">
					<g id="Shape_00000069367483216551525140000006337268831760581774_">
						
							<ellipse id="path-7_00000041272513701047012360000018394625820588945031_" class="st1" cx="240.3" cy="174.7" rx="174.7" ry="174.7"/>
					</g>
					<path id="Shape_00000031190660987504712160000015583001190953866896_" class="st0" d="M240.3-12.3v1043.9c0,50.8-41.2,92-92,92
						H-35.6c-50.8,0-92-41.2-92-92V-12.3H240.3z"/>
					
						<rect id="Shape_00000121263743621053622310000005908695715868747190_" x="65.6" y="173.2" class="st4" width="174.7" height="297.3"/>
				</g>
			</g>
			<path id="Shape_00000160178470785426224450000003486229101708483246_" class="st3" d="M264,777c0-2.5,2-4.5,4.5-4.5
				s4.5,2,4.5,4.5s-2,4.5-4.5,4.5S264,779.5,264,777z M264,745.7c0-2.5,2-4.5,4.5-4.5s4.5,2,4.5,4.5s-2,4.5-4.5,4.5
				S264,748.2,264,745.7z M264,714.4c0-2.5,2-4.5,4.5-4.5s4.5,2,4.5,4.5s-2,4.5-4.5,4.5S264,716.9,264,714.4z M264,683.1
				c0-2.5,2-4.5,4.5-4.5s4.5,2,4.5,4.5s-2,4.5-4.5,4.5S264,685.6,264,683.1z M264,651.8c0-2.5,2-4.5,4.5-4.5s4.5,2,4.5,4.5
				s-2,4.5-4.5,4.5S264,654.3,264,651.8z M264,620.4c0-2.5,2-4.5,4.5-4.5s4.5,2,4.5,4.5s-2,4.5-4.5,4.5S264,622.9,264,620.4z
				 M293.5,777c0-2.5,2-4.5,4.5-4.5s4.5,2,4.5,4.5s-2,4.5-4.5,4.5C295.6,781.5,293.5,779.5,293.5,777z M293.5,745.7
				c0-2.5,2-4.5,4.5-4.5s4.5,2,4.5,4.5s-2,4.5-4.5,4.5C295.6,750.2,293.5,748.2,293.5,745.7z M293.5,714.4c0-2.5,2-4.5,4.5-4.5
				s4.5,2,4.5,4.5s-2,4.5-4.5,4.5C295.6,718.9,293.5,716.9,293.5,714.4z M293.5,683.1c0-2.5,2-4.5,4.5-4.5s4.5,2,4.5,4.5
				s-2,4.5-4.5,4.5C295.6,687.6,293.5,685.6,293.5,683.1z M293.5,651.8c0-2.5,2-4.5,4.5-4.5s4.5,2,4.5,4.5s-2,4.5-4.5,4.5
				C295.6,656.3,293.5,654.3,293.5,651.8z M293.5,620.4c0-2.5,2-4.5,4.5-4.5s4.5,2,4.5,4.5s-2,4.5-4.5,4.5
				C295.6,624.9,293.5,622.9,293.5,620.4z M323.1,777c0-2.5,2-4.5,4.5-4.5s4.5,2,4.5,4.5s-2,4.5-4.5,4.5S323.1,779.5,323.1,777z
				 M323.1,745.7c0-2.5,2-4.5,4.5-4.5s4.5,2,4.5,4.5s-2,4.5-4.5,4.5S323.1,748.2,323.1,745.7z M323.1,714.4c0-2.5,2-4.5,4.5-4.5
				s4.5,2,4.5,4.5s-2,4.5-4.5,4.5S323.1,716.9,323.1,714.4z M323.1,683.1c0-2.5,2-4.5,4.5-4.5s4.5,2,4.5,4.5s-2,4.5-4.5,4.5
				S323.1,685.6,323.1,683.1z M323.1,651.8c0-2.5,2-4.5,4.5-4.5s4.5,2,4.5,4.5s-2,4.5-4.5,4.5S323.1,654.3,323.1,651.8z
				 M323.1,620.4c0-2.5,2-4.5,4.5-4.5s4.5,2,4.5,4.5s-2,4.5-4.5,4.5S323.1,622.9,323.1,620.4z M353.9,777c0-2.5,2-4.5,4.5-4.5
				s4.5,2,4.5,4.5s-2,4.5-4.5,4.5S353.9,779.5,353.9,777z M353.9,745.7c0-2.5,2-4.5,4.5-4.5s4.5,2,4.5,4.5s-2,4.5-4.5,4.5
				S353.9,748.2,353.9,745.7z M353.9,714.4c0-2.5,2-4.5,4.5-4.5s4.5,2,4.5,4.5s-2,4.5-4.5,4.5S353.9,716.9,353.9,714.4z
				 M353.9,683.1c0-2.5,2-4.5,4.5-4.5s4.5,2,4.5,4.5s-2,4.5-4.5,4.5S353.9,685.6,353.9,683.1z M353.9,651.8c0-2.5,2-4.5,4.5-4.5
				s4.5,2,4.5,4.5s-2,4.5-4.5,4.5S353.9,654.3,353.9,651.8z M353.9,620.4c0-2.5,2-4.5,4.5-4.5s4.5,2,4.5,4.5s-2,4.5-4.5,4.5
				S353.9,622.9,353.9,620.4z M383.5,777c0-2.5,2-4.5,4.5-4.5s4.5,2,4.5,4.5s-2,4.5-4.5,4.5S383.5,779.5,383.5,777z M383.5,745.7
				c0-2.5,2-4.5,4.5-4.5s4.5,2,4.5,4.5s-2,4.5-4.5,4.5S383.5,748.2,383.5,745.7z M383.5,714.4c0-2.5,2-4.5,4.5-4.5s4.5,2,4.5,4.5
				s-2,4.5-4.5,4.5S383.5,716.9,383.5,714.4z M383.5,683.1c0-2.5,2-4.5,4.5-4.5s4.5,2,4.5,4.5s-2,4.5-4.5,4.5
				S383.5,685.6,383.5,683.1z M383.5,651.8c0-2.5,2-4.5,4.5-4.5s4.5,2,4.5,4.5s-2,4.5-4.5,4.5S383.5,654.3,383.5,651.8z
				 M383.5,620.4c0-2.5,2-4.5,4.5-4.5s4.5,2,4.5,4.5s-2,4.5-4.5,4.5S383.5,622.9,383.5,620.4z M413,777c0-2.5,2-4.5,4.5-4.5
				s4.5,2,4.5,4.5s-2,4.5-4.5,4.5S413,779.5,413,777z M413,745.7c0-2.5,2-4.5,4.5-4.5s4.5,2,4.5,4.5s-2,4.5-4.5,4.5
				S413,748.2,413,745.7z M413,714.4c0-2.5,2-4.5,4.5-4.5s4.5,2,4.5,4.5s-2,4.5-4.5,4.5S413,716.9,413,714.4z M413,683.1
				c0-2.5,2-4.5,4.5-4.5s4.5,2,4.5,4.5s-2,4.5-4.5,4.5S413,685.6,413,683.1z M413,651.8c0-2.5,2-4.5,4.5-4.5s4.5,2,4.5,4.5
				s-2,4.5-4.5,4.5S413,654.3,413,651.8z M413,620.4c0-2.5,2-4.5,4.5-4.5s4.5,2,4.5,4.5s-2,4.5-4.5,4.5S413,622.9,413,620.4z
				 M264,965.5c0-2.5,2-4.5,4.5-4.5s4.5,2,4.5,4.5s-2,4.5-4.5,4.5S264,968,264,965.5z M264,934.2c0-2.5,2-4.5,4.5-4.5s4.5,2,4.5,4.5
				s-2,4.5-4.5,4.5S264,936.7,264,934.2z M264,902.9c0-2.5,2-4.5,4.5-4.5s4.5,2,4.5,4.5s-2,4.5-4.5,4.5S264,905.4,264,902.9z
				 M264,871.6c0-2.5,2-4.5,4.5-4.5s4.5,2,4.5,4.5s-2,4.5-4.5,4.5S264,874.1,264,871.6z M264,840.3c0-2.5,2-4.5,4.5-4.5
				s4.5,2,4.5,4.5s-2,4.5-4.5,4.5S264,842.8,264,840.3z M264,808.9c0-2.5,2-4.5,4.5-4.5s4.5,2,4.5,4.5s-2,4.5-4.5,4.5
				S264,811.4,264,808.9z M293.5,965.5c0-2.5,2-4.5,4.5-4.5s4.5,2,4.5,4.5s-2,4.5-4.5,4.5C295.6,970,293.5,968,293.5,965.5z
				 M293.5,934.2c0-2.5,2-4.5,4.5-4.5s4.5,2,4.5,4.5s-2,4.5-4.5,4.5C295.6,938.7,293.5,936.7,293.5,934.2z M293.5,902.9
				c0-2.5,2-4.5,4.5-4.5s4.5,2,4.5,4.5s-2,4.5-4.5,4.5C295.6,907.4,293.5,905.4,293.5,902.9z M293.5,871.6c0-2.5,2-4.5,4.5-4.5
				s4.5,2,4.5,4.5s-2,4.5-4.5,4.5C295.6,876.1,293.5,874.1,293.5,871.6z M293.5,840.3c0-2.5,2-4.5,4.5-4.5s4.5,2,4.5,4.5
				s-2,4.5-4.5,4.5C295.6,844.8,293.5,842.8,293.5,840.3z M293.5,808.9c0-2.5,2-4.5,4.5-4.5s4.5,2,4.5,4.5s-2,4.5-4.5,4.5
				C295.6,813.4,293.5,811.4,293.5,808.9z M323.1,965.5c0-2.5,2-4.5,4.5-4.5s4.5,2,4.5,4.5s-2,4.5-4.5,4.5S323.1,968,323.1,965.5z
				 M323.1,934.2c0-2.5,2-4.5,4.5-4.5s4.5,2,4.5,4.5s-2,4.5-4.5,4.5S323.1,936.7,323.1,934.2z M323.1,902.9c0-2.5,2-4.5,4.5-4.5
				s4.5,2,4.5,4.5s-2,4.5-4.5,4.5S323.1,905.4,323.1,902.9z M323.1,871.6c0-2.5,2-4.5,4.5-4.5s4.5,2,4.5,4.5s-2,4.5-4.5,4.5
				S323.1,874.1,323.1,871.6z M323.1,840.3c0-2.5,2-4.5,4.5-4.5s4.5,2,4.5,4.5s-2,4.5-4.5,4.5S323.1,842.8,323.1,840.3z
				 M323.1,808.9c0-2.5,2-4.5,4.5-4.5s4.5,2,4.5,4.5s-2,4.5-4.5,4.5S323.1,811.4,323.1,808.9z M353.9,965.5c0-2.5,2-4.5,4.5-4.5
				s4.5,2,4.5,4.5s-2,4.5-4.5,4.5S353.9,968,353.9,965.5z M353.9,934.2c0-2.5,2-4.5,4.5-4.5s4.5,2,4.5,4.5s-2,4.5-4.5,4.5
				S353.9,936.7,353.9,934.2z M353.9,902.9c0-2.5,2-4.5,4.5-4.5s4.5,2,4.5,4.5s-2,4.5-4.5,4.5S353.9,905.4,353.9,902.9z
				 M353.9,871.6c0-2.5,2-4.5,4.5-4.5s4.5,2,4.5,4.5s-2,4.5-4.5,4.5S353.9,874.1,353.9,871.6z M353.9,840.3c0-2.5,2-4.5,4.5-4.5
				s4.5,2,4.5,4.5s-2,4.5-4.5,4.5S353.9,842.8,353.9,840.3z M353.9,808.9c0-2.5,2-4.5,4.5-4.5s4.5,2,4.5,4.5s-2,4.5-4.5,4.5
				S353.9,811.4,353.9,808.9z M383.5,965.5c0-2.5,2-4.5,4.5-4.5s4.5,2,4.5,4.5s-2,4.5-4.5,4.5S383.5,968,383.5,965.5z M383.5,934.2
				c0-2.5,2-4.5,4.5-4.5s4.5,2,4.5,4.5s-2,4.5-4.5,4.5S383.5,936.7,383.5,934.2z M383.5,902.9c0-2.5,2-4.5,4.5-4.5s4.5,2,4.5,4.5
				s-2,4.5-4.5,4.5S383.5,905.4,383.5,902.9z M383.5,871.6c0-2.5,2-4.5,4.5-4.5s4.5,2,4.5,4.5s-2,4.5-4.5,4.5
				S383.5,874.1,383.5,871.6z M383.5,840.3c0-2.5,2-4.5,4.5-4.5s4.5,2,4.5,4.5s-2,4.5-4.5,4.5S383.5,842.8,383.5,840.3z
				 M383.5,808.9c0-2.5,2-4.5,4.5-4.5s4.5,2,4.5,4.5s-2,4.5-4.5,4.5S383.5,811.4,383.5,808.9z M413,965.5c0-2.5,2-4.5,4.5-4.5
				s4.5,2,4.5,4.5s-2,4.5-4.5,4.5S413,968,413,965.5z M413,934.2c0-2.5,2-4.5,4.5-4.5s4.5,2,4.5,4.5s-2,4.5-4.5,4.5
				S413,936.7,413,934.2z M413,902.9c0-2.5,2-4.5,4.5-4.5s4.5,2,4.5,4.5s-2,4.5-4.5,4.5S413,905.4,413,902.9z M413,871.6
				c0-2.5,2-4.5,4.5-4.5s4.5,2,4.5,4.5s-2,4.5-4.5,4.5S413,874.1,413,871.6z M413,840.3c0-2.5,2-4.5,4.5-4.5s4.5,2,4.5,4.5
				s-2,4.5-4.5,4.5S413,842.8,413,840.3z M413,808.9c0-2.5,2-4.5,4.5-4.5s4.5,2,4.5,4.5s-2,4.5-4.5,4.5S413,811.4,413,808.9z"/>
			<g id="Shape_00000141449297180166718810000016222643153390893198_">
				<g transform="translate(483.000000, 388.000000)">
					<ellipse class="st3" cx="473.3" cy="223.7" rx="223.7" ry="223.7"/>
					<ellipse class="st1" cx="408.9" cy="144" rx="98.1" ry="98"/>
				</g>
			</g>
			<circle id="Shape_00000018204679934270351730000011508746651609046463_" class="st4" cx="1232.5" cy="222.5" r="70.5"/>
			<circle id="Shape_00000088107973446540612920000012073979819858451847_" class="st4" cx="571.5" cy="328.5" r="70.5"/>
			<circle id="Shape_00000095311162257784585570000013107430411063698072_" class="st4" cx="1363" cy="126" r="26"/>
			<circle id="Shape_00000009557390548491295900000008840365377113322928_" class="st7" cx="1336.5" cy="366.5" r="34.5"/>
		</g>
	</g>
</g>
</svg>
