<?xml version="1.0" encoding="utf-8"?>
<!-- Generator: Adobe Illustrator 25.4.1, SVG Export Plug-In . SVG Version: 6.00 Build 0)  -->
<svg version="1.1" id="Layer_1" xmlns="http://www.w3.org/2000/svg" xmlns:xlink="http://www.w3.org/1999/xlink" x="0px" y="0px"
	 viewBox="0 0 1600 1200" style="enable-background:new 0 0 1600 1200;" xml:space="preserve">
<style type="text/css">
	.st0{filter:url(#Adobe_OpacityMaskFilter);}
	.st1{fill-rule:evenodd;clip-rule:evenodd;fill:#FFFFFF;}
	.st2{mask:url(#mask-2_00000016065266876527571380000001373798017325039271_);fill-rule:evenodd;clip-rule:evenodd;fill:#BFBFBF;}
	.st3{filter:url(#Adobe_OpacityMaskFilter_00000068659163790186908120000010373526792506294667_);}
	.st4{mask:url(#mask-2_00000012445435223706662920000007276254484947324826_);fill-rule:evenodd;clip-rule:evenodd;fill:#75CBB3;}
	.st5{filter:url(#Adobe_OpacityMaskFilter_00000137107280132359043740000007270103026369978757_);}
	.st6{mask:url(#mask-2_00000129906395661786634160000013001120076067169414_);fill-rule:evenodd;clip-rule:evenodd;fill:#F2F2F2;}
	.st7{filter:url(#Adobe_OpacityMaskFilter_00000060749977278674036090000005357445690523810199_);}
	.st8{mask:url(#mask-2_00000018932257624784592040000007094655656461411993_);fill-rule:evenodd;clip-rule:evenodd;fill:#DC2249;}
	.st9{filter:url(#Adobe_OpacityMaskFilter_00000105417458577253613300000012139397493302122138_);}
	.st10{mask:url(#mask-2_00000170969122735695457750000006659671644476518589_);fill-rule:evenodd;clip-rule:evenodd;fill:#7A4865;}
	.st11{filter:url(#Adobe_OpacityMaskFilter_00000044138659421109799350000016285309300768782501_);}
	.st12{mask:url(#mask-2_00000013872655761093508440000008735719454493781144_);}
	.st13{fill-rule:evenodd;clip-rule:evenodd;fill:#F6CB51;}
	.st14{filter:url(#Adobe_OpacityMaskFilter_00000163043877880246394120000017593394424882970015_);}
	.st15{mask:url(#mask-2_00000057114641672992315680000006809139788496624018_);fill-rule:evenodd;clip-rule:evenodd;fill:#3D2C42;}
	.st16{filter:url(#Adobe_OpacityMaskFilter_00000075149425902832284670000003929698109945556156_);}
	.st17{mask:url(#mask-2_00000060008182753106032890000013077281774089358468_);}
	.st18{fill-rule:evenodd;clip-rule:evenodd;fill:#DC2249;}
	.st19{filter:url(#Adobe_OpacityMaskFilter_00000080188102241975032280000017398770256081310346_);}
	.st20{mask:url(#mask-2_00000086668330406982203250000016203317843531951537_);fill-rule:evenodd;clip-rule:evenodd;fill:#75CBB3;}
	.st21{filter:url(#Adobe_OpacityMaskFilter_00000040553475576720362180000015726127652770917560_);}
	.st22{mask:url(#mask-2_00000162313174218897941540000008293037057907586987_);}
	.st23{fill-rule:evenodd;clip-rule:evenodd;fill:#75CBB3;}
	.st24{filter:url(#Adobe_OpacityMaskFilter_00000101095057653366288240000003030595896330159793_);}
	.st25{mask:url(#mask-8_00000155859125119089546770000015212802020943708073_);fill-rule:evenodd;clip-rule:evenodd;fill:#BFBFBF;}
	.st26{filter:url(#Adobe_OpacityMaskFilter_00000182488327044841041980000002971550574168128441_);}
	.st27{mask:url(#mask-8_00000105413217566028583500000013534891684887112376_);fill-rule:evenodd;clip-rule:evenodd;fill:#7A4865;}
	.st28{filter:url(#Adobe_OpacityMaskFilter_00000034801360311642878720000006516936521426053030_);}
	.st29{mask:url(#mask-2_00000181803009456459039770000016907075550147430287_);fill-rule:evenodd;clip-rule:evenodd;fill:#DC2249;}
	.st30{filter:url(#Adobe_OpacityMaskFilter_00000032623750393526973840000014270623134487771837_);}
	.st31{mask:url(#mask-2_00000036224398168298278900000017331062762479880382_);}
	.st32{fill-rule:evenodd;clip-rule:evenodd;fill:#F2F2F2;}
	.st33{filter:url(#Adobe_OpacityMaskFilter_00000063596386624048315730000011629873790500840101_);}
	.st34{mask:url(#mask-2_00000037687795357066323940000003032086579945172654_);fill-rule:evenodd;clip-rule:evenodd;fill:#7A4865;}
	.st35{filter:url(#Adobe_OpacityMaskFilter_00000103971963896565858330000010341683505685279917_);}
	.st36{mask:url(#mask-2_00000035501969976470081390000013495101474361330825_);fill-rule:evenodd;clip-rule:evenodd;fill:#7A4865;}
	.st37{filter:url(#Adobe_OpacityMaskFilter_00000014610055982349842340000001011482796659744174_);}
	.st38{mask:url(#mask-2_00000049193656320247649600000015543975319124401844_);fill-rule:evenodd;clip-rule:evenodd;fill:#7A4865;}
	.st39{filter:url(#Adobe_OpacityMaskFilter_00000029043996585934845030000005627008735779164345_);}
	.st40{mask:url(#mask-2_00000058569552298314485210000006891949780930702496_);fill-rule:evenodd;clip-rule:evenodd;fill:#F2F2F2;}
</style>
<desc>Created with Sketch.</desc>
<g id="Patterns">
	<g id="Oreti">
		<g>
			<defs>
				<filter id="Adobe_OpacityMaskFilter" filterUnits="userSpaceOnUse" x="0" y="-182" width="184" height="628">
					<feColorMatrix  type="matrix" values="1 0 0 0 0  0 1 0 0 0  0 0 1 0 0  0 0 0 1 0"/>
				</filter>
			</defs>
			
				<mask maskUnits="userSpaceOnUse" x="0" y="-182" width="184" height="628" id="mask-2_00000016065266876527571380000001373798017325039271_">
				<g class="st0">
					<rect id="path-1_00000155845161013843567170000005224037137571923619_" x="-63" class="st1" width="1600" height="1200"/>
				</g>
			</mask>
			<path id="Shape" class="st2" d="M92-182c50.8,0,92,41.1,92,91.9v444.2c0,50.8-41.2,91.9-92,91.9H0V-90.1C0-140.9,41.2-182,92-182
				z"/>
			<defs>
				
					<filter id="Adobe_OpacityMaskFilter_00000045611715142506740190000002281203060896869007_" filterUnits="userSpaceOnUse" x="551" y="94" width="184" height="1060">
					<feColorMatrix  type="matrix" values="1 0 0 0 0  0 1 0 0 0  0 0 1 0 0  0 0 0 1 0"/>
				</filter>
			</defs>
			
				<mask maskUnits="userSpaceOnUse" x="551" y="94" width="184" height="1060" id="mask-2_00000012445435223706662920000007276254484947324826_">
				<g style="filter:url(#Adobe_OpacityMaskFilter_00000045611715142506740190000002281203060896869007_);">
					<rect id="path-1_00000112614145833340465910000001574878457533007770_" x="-63" class="st1" width="1600" height="1200"/>
				</g>
			</mask>
			<path id="Shape_00000079461179312064771030000005162428056584889497_" class="st4" d="M643,94c50.8,0,92,41.1,92,91.9v814.9
				c0,50.8-41.2,91.9-92,91.9c-33.9,0-64.5,20.4-92,61.3V185.9C551,135.1,592.2,94,643,94z"/>
			<defs>
				
					<filter id="Adobe_OpacityMaskFilter_00000057133176120053310840000009942868686237508741_" filterUnits="userSpaceOnUse" x="551" y="-310" width="184" height="1091">
					<feColorMatrix  type="matrix" values="1 0 0 0 0  0 1 0 0 0  0 0 1 0 0  0 0 0 1 0"/>
				</filter>
			</defs>
			
				<mask maskUnits="userSpaceOnUse" x="551" y="-310" width="184" height="1091" id="mask-2_00000129906395661786634160000013001120076067169414_">
				<g style="filter:url(#Adobe_OpacityMaskFilter_00000057133176120053310840000009942868686237508741_);">
					<rect id="path-1_00000114049510919255042030000007371751896294128571_" x="-63" class="st1" width="1600" height="1200"/>
				</g>
			</mask>
			<path id="Shape_00000142857081298588963170000016797448174836992657_" class="st6" d="M643-310c50.8,0,92,41.2,92,91.9v815.2
				c0,50.8-41.2,91.9-92,91.9c-33.9,0-64.5,30.6-92,91.9v-999.1C551-268.8,592.2-310,643-310z"/>
			<defs>
				
					<filter id="Adobe_OpacityMaskFilter_00000093860767308496511140000013574815371657358504_" filterUnits="userSpaceOnUse" x="0" y="814" width="184" height="628">
					<feColorMatrix  type="matrix" values="1 0 0 0 0  0 1 0 0 0  0 0 1 0 0  0 0 0 1 0"/>
				</filter>
			</defs>
			
				<mask maskUnits="userSpaceOnUse" x="0" y="814" width="184" height="628" id="mask-2_00000018932257624784592040000007094655656461411993_">
				<g style="filter:url(#Adobe_OpacityMaskFilter_00000093860767308496511140000013574815371657358504_);">
					<rect id="path-1_00000021117017871424722480000016801627461246767537_" x="-63" class="st1" width="1600" height="1200"/>
				</g>
			</mask>
			<path id="Shape_00000038386865808222750420000001228835304583173021_" class="st8" d="M92,814c50.8,0,92,41.1,92,91.9v444.2
				c0,50.8-41.2,91.9-92,91.9H0V905.9C0,855.1,41.2,814,92,814z"/>
			<defs>
				
					<filter id="Adobe_OpacityMaskFilter_00000124142632269544002980000017500321132652061361_" filterUnits="userSpaceOnUse" x="184" y="-56" width="367" height="1137">
					<feColorMatrix  type="matrix" values="1 0 0 0 0  0 1 0 0 0  0 0 1 0 0  0 0 0 1 0"/>
				</filter>
			</defs>
			
				<mask maskUnits="userSpaceOnUse" x="184" y="-56" width="367" height="1137" id="mask-2_00000170969122735695457750000006659671644476518589_">
				<g style="filter:url(#Adobe_OpacityMaskFilter_00000124142632269544002980000017500321132652061361_);">
					<rect id="path-1_00000058577985523040166640000006860482583945881279_" x="-63" class="st1" width="1600" height="1200"/>
				</g>
			</mask>
			<path id="Shape_00000164495741307867221260000007573662522804339131_" class="st10" d="M551,812.5H184V-50.7h149.9V-56H551V812.5
				z M551,815.5v27H184v-27H551z M551,847.5V872H184v-24.5H551z M551,880v21.5H184V880H551z M551,912.5v18H184v-18H551z M551,943.5
				V961H184v-17.5H551z M551,977v12c0,0.2,0,0.4,0,0.5H184c0-0.2,0-0.4,0-0.5v-12H551z M548.9,1008.5c-0.8,3.8-1.8,7.4-3.1,11H189.2
				c-1.3-3.6-2.3-7.2-3.1-11H548.9z M535.3,1040.5c-2,3-4.2,5.8-6.5,8.5H206.2c-2.3-2.7-4.5-5.5-6.5-8.5H535.3z M496.7,1073
				c-11.4,5.1-24.1,8-37.5,8H275.8c-13.3,0-26-2.9-37.5-8H496.7L496.7,1073z"/>
			<defs>
				
					<filter id="Adobe_OpacityMaskFilter_00000101815906369338176160000006767860533098346160_" filterUnits="userSpaceOnUse" x="184" y="-56.3" width="367" height="820">
					<feColorMatrix  type="matrix" values="1 0 0 0 0  0 1 0 0 0  0 0 1 0 0  0 0 0 1 0"/>
				</filter>
			</defs>
			
				<mask maskUnits="userSpaceOnUse" x="184" y="-56.3" width="367" height="820" id="mask-2_00000013872655761093508440000008735719454493781144_">
				<g style="filter:url(#Adobe_OpacityMaskFilter_00000101815906369338176160000006767860533098346160_);">
					<rect id="path-1_00000032621688626589613880000013470821833146330253_" x="-63" class="st1" width="1600" height="1200"/>
				</g>
			</mask>
			<g id="Shape_00000096035702135645225780000017024215717153549490_" class="st12">
				<g transform="translate(247.000000, -57.000000)">
					<g id="Shape_00000065038979666297425760000014429107021166380944_">
						<path id="path-3_00000030455444756100680800000016625966699103455372_" class="st13" d="M-63,0.7h367v341.5
							c0,50.7-41.1,91.9-91.8,91.9s-91.8,41.1-91.8,91.9V637c0,101.5-82.2,183.8-183.5,183.8V0.7z"/>
					</g>
				</g>
			</g>
			<defs>
				
					<filter id="Adobe_OpacityMaskFilter_00000075137816520660649090000001998654994158831039_" filterUnits="userSpaceOnUse" x="919" y="366.6" width="184" height="790.4">
					<feColorMatrix  type="matrix" values="1 0 0 0 0  0 1 0 0 0  0 0 1 0 0  0 0 0 1 0"/>
				</filter>
			</defs>
			
				<mask maskUnits="userSpaceOnUse" x="919" y="366.6" width="184" height="790.4" id="mask-2_00000057114641672992315680000006809139788496624018_">
				<g style="filter:url(#Adobe_OpacityMaskFilter_00000075137816520660649090000001998654994158831039_);">
					<rect id="path-1_00000031916334371249205890000000326467154118770088_" x="-63" class="st1" width="1600" height="1200"/>
				</g>
			</mask>
			<path id="Shape_00000093897625776542494360000014583622493352391858_" class="st15" d="M1103,445v528.1c0,50.8-41.2,91.9-92,91.9
				c-33.9,0-64.5,30.6-92,91.9V366.6c6.6,44.4,44.8,78.4,91,78.4H1103z"/>
			<defs>
				
					<filter id="Adobe_OpacityMaskFilter_00000096746953436407715030000006245250499205304473_" filterUnits="userSpaceOnUse" x="919" y="629" width="183.8" height="627.5">
					<feColorMatrix  type="matrix" values="1 0 0 0 0  0 1 0 0 0  0 0 1 0 0  0 0 0 1 0"/>
				</filter>
			</defs>
			
				<mask maskUnits="userSpaceOnUse" x="919" y="629" width="183.8" height="627.5" id="mask-2_00000060008182753106032890000013077281774089358468_">
				<g style="filter:url(#Adobe_OpacityMaskFilter_00000096746953436407715030000006245250499205304473_);">
					<rect id="path-1_00000143610438853762486080000016345322457199133604_" x="-63" class="st1" width="1600" height="1200"/>
				</g>
			</mask>
			<g id="Shape_00000116227653581425078970000012246331122398600890_" class="st17">
				<g transform="translate(982.000000, 629.000000)">
					<g id="Shape_00000101809024955459497240000001370432607002137522_">
						<path id="path-5_00000023974371971748911630000003786204608211159947_" class="st18" d="M28.9,0c50.8,0,91.9,41.1,91.9,91.8
							v443.8c0,50.7-41.1,91.8-91.9,91.8S-63,586.4-63,535.6V91.8C-63,41.1-21.9,0,28.9,0z"/>
					</g>
				</g>
			</g>
			<defs>
				
					<filter id="Adobe_OpacityMaskFilter_00000057867114491516146200000006422240774217625528_" filterUnits="userSpaceOnUse" x="75" y="500" width="32" height="267">
					<feColorMatrix  type="matrix" values="1 0 0 0 0  0 1 0 0 0  0 0 1 0 0  0 0 0 1 0"/>
				</filter>
			</defs>
			
				<mask maskUnits="userSpaceOnUse" x="75" y="500" width="32" height="267" id="mask-2_00000086668330406982203250000016203317843531951537_">
				<g style="filter:url(#Adobe_OpacityMaskFilter_00000057867114491516146200000006422240774217625528_);">
					<rect id="path-1_00000003081282409934214750000003797937941465807246_" x="-63" class="st1" width="1600" height="1200"/>
				</g>
			</mask>
			<path id="Shape_00000165913782409605986370000000332149884620827323_" class="st20" d="M91,688.7c-8.8,0-16-7.2-16-16.1
				c0-8.9,7.2-16.1,16-16.1s16,7.2,16,16.1C107,681.5,99.8,688.7,91,688.7z M91,767c-8.8,0-16-7.2-16-16.1s7.2-16.1,16-16.1
				s16,7.2,16,16.1S99.8,767,91,767z M91,532.2c-8.8,0-16-7.2-16-16.1S82.2,500,91,500s16,7.2,16,16.1S99.8,532.2,91,532.2z
				 M91,610.5c-8.8,0-16-7.2-16-16.1c0-8.9,7.2-16.1,16-16.1s16,7.2,16,16.1C107,603.3,99.8,610.5,91,610.5z"/>
			<defs>
				
					<filter id="Adobe_OpacityMaskFilter_00000164499106499314723000000010402030559557515395_" filterUnits="userSpaceOnUse" x="561" y="-56.3" width="542.6" height="1135.9">
					<feColorMatrix  type="matrix" values="1 0 0 0 0  0 1 0 0 0  0 0 1 0 0  0 0 0 1 0"/>
				</filter>
			</defs>
			
				<mask maskUnits="userSpaceOnUse" x="561" y="-56.3" width="542.6" height="1135.9" id="mask-2_00000162313174218897941540000008293037057907586987_">
				<g style="filter:url(#Adobe_OpacityMaskFilter_00000164499106499314723000000010402030559557515395_);">
					<rect id="path-1_00000173136918859414340490000016057626477664319404_" x="-63" class="st1" width="1600" height="1200"/>
				</g>
			</mask>
			<g id="Shape_00000100354143547676817740000002742089057117209519_" class="st22">
				<g transform="translate(624.000000, -44.000000)">
					<g id="Shape_00000069367483216551525140000006337268831760581774_">
						
							<ellipse id="path-7_00000041272513701047012360000018394625820588945031_" class="st23" cx="111.7" cy="174.7" rx="174.7" ry="174.7"/>
					</g>
					<defs>
						
							<filter id="Adobe_OpacityMaskFilter_00000116204165206139769890000010000328914581912226_" filterUnits="userSpaceOnUse" x="111.7" y="-12.3" width="367.9" height="1135.9">
							<feColorMatrix  type="matrix" values="1 0 0 0 0  0 1 0 0 0  0 0 1 0 0  0 0 0 1 0"/>
						</filter>
					</defs>
					
						<mask maskUnits="userSpaceOnUse" x="111.7" y="-12.3" width="367.9" height="1135.9" id="mask-8_00000155859125119089546770000015212802020943708073_">
						<g style="filter:url(#Adobe_OpacityMaskFilter_00000116204165206139769890000010000328914581912226_);">
							
								<ellipse id="path-7_00000018945507220105366110000001588450246701716128_" class="st1" cx="111.7" cy="174.7" rx="174.7" ry="174.7"/>
						</g>
					</mask>
					<path id="Shape_00000031190660987504712160000015583001190953866896_" class="st25" d="M479.6-12.3v1043.9
						c0,50.8-41.2,92-92,92H203.7c-50.8,0-92-41.2-92-92V-12.3H479.6z"/>
					<defs>
						
							<filter id="Adobe_OpacityMaskFilter_00000060009101847734178690000003845752329496301479_" filterUnits="userSpaceOnUse" x="111.7" y="173.2" width="174.7" height="297.3">
							<feColorMatrix  type="matrix" values="1 0 0 0 0  0 1 0 0 0  0 0 1 0 0  0 0 0 1 0"/>
						</filter>
					</defs>
					
						<mask maskUnits="userSpaceOnUse" x="111.7" y="173.2" width="174.7" height="297.3" id="mask-8_00000105413217566028583500000013534891684887112376_">
						<g style="filter:url(#Adobe_OpacityMaskFilter_00000060009101847734178690000003845752329496301479_);">
							
								<ellipse id="path-7_00000018955138215468762400000006720425478665367431_" class="st1" cx="111.7" cy="174.7" rx="174.7" ry="174.7"/>
						</g>
					</mask>
					
						<rect id="Shape_00000121263743621053622310000005908695715868747190_" x="111.7" y="173.2" class="st27" width="174.7" height="297.3"/>
				</g>
			</g>
			<defs>
				
					<filter id="Adobe_OpacityMaskFilter_00000103972560198649586630000017578106894450056594_" filterUnits="userSpaceOnUse" x="1178" y="616" width="158" height="354">
					<feColorMatrix  type="matrix" values="1 0 0 0 0  0 1 0 0 0  0 0 1 0 0  0 0 0 1 0"/>
				</filter>
			</defs>
			
				<mask maskUnits="userSpaceOnUse" x="1178" y="616" width="158" height="354" id="mask-2_00000181803009456459039770000016907075550147430287_">
				<g style="filter:url(#Adobe_OpacityMaskFilter_00000103972560198649586630000017578106894450056594_);">
					<rect id="path-1_00000099650878168070249520000002149426757192499861_" x="-63" class="st1" width="1600" height="1200"/>
				</g>
			</mask>
			<path id="Shape_00000160178470785426224450000003486229101708483246_" class="st29" d="M1331.5,781.5c-2.5,0-4.5-2-4.5-4.5
				s2-4.5,4.5-4.5s4.5,2,4.5,4.5S1334,781.5,1331.5,781.5z M1331.5,750.2c-2.5,0-4.5-2-4.5-4.5s2-4.5,4.5-4.5s4.5,2,4.5,4.5
				S1334,750.2,1331.5,750.2z M1331.5,718.9c-2.5,0-4.5-2-4.5-4.5c0-2.5,2-4.5,4.5-4.5s4.5,2,4.5,4.5
				C1336,716.9,1334,718.9,1331.5,718.9z M1331.5,687.6c-2.5,0-4.5-2-4.5-4.5s2-4.5,4.5-4.5s4.5,2,4.5,4.5S1334,687.6,1331.5,687.6z
				 M1331.5,656.3c-2.5,0-4.5-2-4.5-4.5c0-2.5,2-4.5,4.5-4.5s4.5,2,4.5,4.5C1336,654.3,1334,656.3,1331.5,656.3z M1331.5,624.9
				c-2.5,0-4.5-2-4.5-4.5s2-4.5,4.5-4.5s4.5,2,4.5,4.5S1334,624.9,1331.5,624.9z M1302,781.5c-2.5,0-4.5-2-4.5-4.5s2-4.5,4.5-4.5
				s4.5,2,4.5,4.5S1304.4,781.5,1302,781.5z M1302,750.2c-2.5,0-4.5-2-4.5-4.5s2-4.5,4.5-4.5s4.5,2,4.5,4.5S1304.4,750.2,1302,750.2
				z M1302,718.9c-2.5,0-4.5-2-4.5-4.5c0-2.5,2-4.5,4.5-4.5s4.5,2,4.5,4.5C1306.5,716.9,1304.4,718.9,1302,718.9z M1302,687.6
				c-2.5,0-4.5-2-4.5-4.5s2-4.5,4.5-4.5s4.5,2,4.5,4.5S1304.4,687.6,1302,687.6z M1302,656.3c-2.5,0-4.5-2-4.5-4.5
				c0-2.5,2-4.5,4.5-4.5s4.5,2,4.5,4.5C1306.5,654.3,1304.4,656.3,1302,656.3z M1302,624.9c-2.5,0-4.5-2-4.5-4.5s2-4.5,4.5-4.5
				s4.5,2,4.5,4.5S1304.4,624.9,1302,624.9z M1272.4,781.5c-2.5,0-4.5-2-4.5-4.5s2-4.5,4.5-4.5s4.5,2,4.5,4.5
				S1274.9,781.5,1272.4,781.5z M1272.4,750.2c-2.5,0-4.5-2-4.5-4.5s2-4.5,4.5-4.5s4.5,2,4.5,4.5S1274.9,750.2,1272.4,750.2z
				 M1272.4,718.9c-2.5,0-4.5-2-4.5-4.5c0-2.5,2-4.5,4.5-4.5s4.5,2,4.5,4.5C1276.9,716.9,1274.9,718.9,1272.4,718.9z M1272.4,687.6
				c-2.5,0-4.5-2-4.5-4.5s2-4.5,4.5-4.5s4.5,2,4.5,4.5S1274.9,687.6,1272.4,687.6z M1272.4,656.3c-2.5,0-4.5-2-4.5-4.5
				c0-2.5,2-4.5,4.5-4.5s4.5,2,4.5,4.5C1276.9,654.3,1274.9,656.3,1272.4,656.3z M1272.4,624.9c-2.5,0-4.5-2-4.5-4.5s2-4.5,4.5-4.5
				s4.5,2,4.5,4.5S1274.9,624.9,1272.4,624.9z M1241.6,781.5c-2.5,0-4.5-2-4.5-4.5s2-4.5,4.5-4.5s4.5,2,4.5,4.5
				S1244.1,781.5,1241.6,781.5z M1241.6,750.2c-2.5,0-4.5-2-4.5-4.5s2-4.5,4.5-4.5s4.5,2,4.5,4.5S1244.1,750.2,1241.6,750.2z
				 M1241.6,718.9c-2.5,0-4.5-2-4.5-4.5c0-2.5,2-4.5,4.5-4.5s4.5,2,4.5,4.5C1246.1,716.9,1244.1,718.9,1241.6,718.9z M1241.6,687.6
				c-2.5,0-4.5-2-4.5-4.5s2-4.5,4.5-4.5s4.5,2,4.5,4.5S1244.1,687.6,1241.6,687.6z M1241.6,656.3c-2.5,0-4.5-2-4.5-4.5
				c0-2.5,2-4.5,4.5-4.5s4.5,2,4.5,4.5C1246.1,654.3,1244.1,656.3,1241.6,656.3z M1241.6,624.9c-2.5,0-4.5-2-4.5-4.5s2-4.5,4.5-4.5
				s4.5,2,4.5,4.5S1244.1,624.9,1241.6,624.9z M1212,781.5c-2.5,0-4.5-2-4.5-4.5s2-4.5,4.5-4.5s4.5,2,4.5,4.5
				S1214.5,781.5,1212,781.5z M1212,750.2c-2.5,0-4.5-2-4.5-4.5s2-4.5,4.5-4.5s4.5,2,4.5,4.5S1214.5,750.2,1212,750.2z M1212,718.9
				c-2.5,0-4.5-2-4.5-4.5c0-2.5,2-4.5,4.5-4.5s4.5,2,4.5,4.5C1216.5,716.9,1214.5,718.9,1212,718.9z M1212,687.6
				c-2.5,0-4.5-2-4.5-4.5s2-4.5,4.5-4.5s4.5,2,4.5,4.5S1214.5,687.6,1212,687.6z M1212,656.3c-2.5,0-4.5-2-4.5-4.5
				c0-2.5,2-4.5,4.5-4.5s4.5,2,4.5,4.5C1216.5,654.3,1214.5,656.3,1212,656.3z M1212,624.9c-2.5,0-4.5-2-4.5-4.5s2-4.5,4.5-4.5
				s4.5,2,4.5,4.5S1214.5,624.9,1212,624.9z M1182.5,781.5c-2.5,0-4.5-2-4.5-4.5s2-4.5,4.5-4.5s4.5,2,4.5,4.5
				S1185,781.5,1182.5,781.5z M1182.5,750.2c-2.5,0-4.5-2-4.5-4.5s2-4.5,4.5-4.5s4.5,2,4.5,4.5S1185,750.2,1182.5,750.2z
				 M1182.5,718.9c-2.5,0-4.5-2-4.5-4.5c0-2.5,2-4.5,4.5-4.5s4.5,2,4.5,4.5C1187,716.9,1185,718.9,1182.5,718.9z M1182.5,687.6
				c-2.5,0-4.5-2-4.5-4.5s2-4.5,4.5-4.5s4.5,2,4.5,4.5S1185,687.6,1182.5,687.6z M1182.5,656.3c-2.5,0-4.5-2-4.5-4.5
				c0-2.5,2-4.5,4.5-4.5s4.5,2,4.5,4.5C1187,654.3,1185,656.3,1182.5,656.3z M1182.5,624.9c-2.5,0-4.5-2-4.5-4.5s2-4.5,4.5-4.5
				s4.5,2,4.5,4.5S1185,624.9,1182.5,624.9z M1331.5,970c-2.5,0-4.5-2-4.5-4.5s2-4.5,4.5-4.5s4.5,2,4.5,4.5S1334,970,1331.5,970z
				 M1331.5,938.7c-2.5,0-4.5-2-4.5-4.5c0-2.5,2-4.5,4.5-4.5s4.5,2,4.5,4.5C1336,936.7,1334,938.7,1331.5,938.7z M1331.5,907.4
				c-2.5,0-4.5-2-4.5-4.5s2-4.5,4.5-4.5s4.5,2,4.5,4.5S1334,907.4,1331.5,907.4z M1331.5,876.1c-2.5,0-4.5-2-4.5-4.5
				c0-2.5,2-4.5,4.5-4.5s4.5,2,4.5,4.5C1336,874.1,1334,876.1,1331.5,876.1z M1331.5,844.8c-2.5,0-4.5-2-4.5-4.5s2-4.5,4.5-4.5
				s4.5,2,4.5,4.5S1334,844.8,1331.5,844.8z M1331.5,813.4c-2.5,0-4.5-2-4.5-4.5s2-4.5,4.5-4.5s4.5,2,4.5,4.5
				S1334,813.4,1331.5,813.4z M1302,970c-2.5,0-4.5-2-4.5-4.5s2-4.5,4.5-4.5s4.5,2,4.5,4.5S1304.4,970,1302,970z M1302,938.7
				c-2.5,0-4.5-2-4.5-4.5c0-2.5,2-4.5,4.5-4.5s4.5,2,4.5,4.5C1306.5,936.7,1304.4,938.7,1302,938.7z M1302,907.4
				c-2.5,0-4.5-2-4.5-4.5s2-4.5,4.5-4.5s4.5,2,4.5,4.5S1304.4,907.4,1302,907.4z M1302,876.1c-2.5,0-4.5-2-4.5-4.5
				c0-2.5,2-4.5,4.5-4.5s4.5,2,4.5,4.5C1306.5,874.1,1304.4,876.1,1302,876.1z M1302,844.8c-2.5,0-4.5-2-4.5-4.5s2-4.5,4.5-4.5
				s4.5,2,4.5,4.5S1304.4,844.8,1302,844.8z M1302,813.4c-2.5,0-4.5-2-4.5-4.5s2-4.5,4.5-4.5s4.5,2,4.5,4.5S1304.4,813.4,1302,813.4
				z M1272.4,970c-2.5,0-4.5-2-4.5-4.5s2-4.5,4.5-4.5s4.5,2,4.5,4.5S1274.9,970,1272.4,970z M1272.4,938.7c-2.5,0-4.5-2-4.5-4.5
				c0-2.5,2-4.5,4.5-4.5s4.5,2,4.5,4.5C1276.9,936.7,1274.9,938.7,1272.4,938.7z M1272.4,907.4c-2.5,0-4.5-2-4.5-4.5s2-4.5,4.5-4.5
				s4.5,2,4.5,4.5S1274.9,907.4,1272.4,907.4z M1272.4,876.1c-2.5,0-4.5-2-4.5-4.5c0-2.5,2-4.5,4.5-4.5s4.5,2,4.5,4.5
				C1276.9,874.1,1274.9,876.1,1272.4,876.1z M1272.4,844.8c-2.5,0-4.5-2-4.5-4.5s2-4.5,4.5-4.5s4.5,2,4.5,4.5
				S1274.9,844.8,1272.4,844.8z M1272.4,813.4c-2.5,0-4.5-2-4.5-4.5s2-4.5,4.5-4.5s4.5,2,4.5,4.5S1274.9,813.4,1272.4,813.4z
				 M1241.6,970c-2.5,0-4.5-2-4.5-4.5s2-4.5,4.5-4.5s4.5,2,4.5,4.5S1244.1,970,1241.6,970z M1241.6,938.7c-2.5,0-4.5-2-4.5-4.5
				c0-2.5,2-4.5,4.5-4.5s4.5,2,4.5,4.5C1246.1,936.7,1244.1,938.7,1241.6,938.7z M1241.6,907.4c-2.5,0-4.5-2-4.5-4.5s2-4.5,4.5-4.5
				s4.5,2,4.5,4.5S1244.1,907.4,1241.6,907.4z M1241.6,876.1c-2.5,0-4.5-2-4.5-4.5c0-2.5,2-4.5,4.5-4.5s4.5,2,4.5,4.5
				C1246.1,874.1,1244.1,876.1,1241.6,876.1z M1241.6,844.8c-2.5,0-4.5-2-4.5-4.5s2-4.5,4.5-4.5s4.5,2,4.5,4.5
				S1244.1,844.8,1241.6,844.8z M1241.6,813.4c-2.5,0-4.5-2-4.5-4.5s2-4.5,4.5-4.5s4.5,2,4.5,4.5S1244.1,813.4,1241.6,813.4z
				 M1212,970c-2.5,0-4.5-2-4.5-4.5s2-4.5,4.5-4.5s4.5,2,4.5,4.5S1214.5,970,1212,970z M1212,938.7c-2.5,0-4.5-2-4.5-4.5
				c0-2.5,2-4.5,4.5-4.5s4.5,2,4.5,4.5C1216.5,936.7,1214.5,938.7,1212,938.7z M1212,907.4c-2.5,0-4.5-2-4.5-4.5s2-4.5,4.5-4.5
				s4.5,2,4.5,4.5S1214.5,907.4,1212,907.4z M1212,876.1c-2.5,0-4.5-2-4.5-4.5c0-2.5,2-4.5,4.5-4.5s4.5,2,4.5,4.5
				C1216.5,874.1,1214.5,876.1,1212,876.1z M1212,844.8c-2.5,0-4.5-2-4.5-4.5s2-4.5,4.5-4.5s4.5,2,4.5,4.5S1214.5,844.8,1212,844.8z
				 M1212,813.4c-2.5,0-4.5-2-4.5-4.5s2-4.5,4.5-4.5s4.5,2,4.5,4.5S1214.5,813.4,1212,813.4z M1182.5,970c-2.5,0-4.5-2-4.5-4.5
				s2-4.5,4.5-4.5s4.5,2,4.5,4.5S1185,970,1182.5,970z M1182.5,938.7c-2.5,0-4.5-2-4.5-4.5c0-2.5,2-4.5,4.5-4.5s4.5,2,4.5,4.5
				C1187,936.7,1185,938.7,1182.5,938.7z M1182.5,907.4c-2.5,0-4.5-2-4.5-4.5s2-4.5,4.5-4.5s4.5,2,4.5,4.5S1185,907.4,1182.5,907.4z
				 M1182.5,876.1c-2.5,0-4.5-2-4.5-4.5c0-2.5,2-4.5,4.5-4.5s4.5,2,4.5,4.5C1187,874.1,1185,876.1,1182.5,876.1z M1182.5,844.8
				c-2.5,0-4.5-2-4.5-4.5s2-4.5,4.5-4.5s4.5,2,4.5,4.5S1185,844.8,1182.5,844.8z M1182.5,813.4c-2.5,0-4.5-2-4.5-4.5s2-4.5,4.5-4.5
				s4.5,2,4.5,4.5S1185,813.4,1182.5,813.4z"/>
			<defs>
				
					<filter id="Adobe_OpacityMaskFilter_00000142861674465377362820000007154007626010770317_" filterUnits="userSpaceOnUse" x="420" y="388" width="447.4" height="447.3">
					<feColorMatrix  type="matrix" values="1 0 0 0 0  0 1 0 0 0  0 0 1 0 0  0 0 0 1 0"/>
				</filter>
			</defs>
			
				<mask maskUnits="userSpaceOnUse" x="420" y="388" width="447.4" height="447.3" id="mask-2_00000036224398168298278900000017331062762479880382_">
				<g style="filter:url(#Adobe_OpacityMaskFilter_00000142861674465377362820000007154007626010770317_);">
					<rect id="path-1_00000153669230038764265430000001351102622223865766_" x="-63" class="st1" width="1600" height="1200"/>
				</g>
			</mask>
			<g id="Shape_00000141449297180166718810000016222643153390893198_" class="st31">
				<g transform="translate(483.000000, 388.000000)">
					<ellipse class="st32" cx="160.7" cy="223.7" rx="223.7" ry="223.7"/>
					<ellipse class="st23" cx="225.1" cy="144" rx="98.1" ry="98"/>
				</g>
			</g>
			<defs>
				
					<filter id="Adobe_OpacityMaskFilter_00000094612756059250050920000016477635558785683369_" filterUnits="userSpaceOnUse" x="297" y="152" width="141" height="141">
					<feColorMatrix  type="matrix" values="1 0 0 0 0  0 1 0 0 0  0 0 1 0 0  0 0 0 1 0"/>
				</filter>
			</defs>
			
				<mask maskUnits="userSpaceOnUse" x="297" y="152" width="141" height="141" id="mask-2_00000037687795357066323940000003032086579945172654_">
				<g style="filter:url(#Adobe_OpacityMaskFilter_00000094612756059250050920000016477635558785683369_);">
					<rect id="path-1_00000035523813377612836860000008706975250301653917_" x="-63" class="st1" width="1600" height="1200"/>
				</g>
			</mask>
			<circle id="Shape_00000018204679934270351730000011508746651609046463_" class="st34" cx="367.5" cy="222.5" r="70.5"/>
			<defs>
				
					<filter id="Adobe_OpacityMaskFilter_00000070110409687848493650000012845033464586011018_" filterUnits="userSpaceOnUse" x="958" y="258" width="141" height="141">
					<feColorMatrix  type="matrix" values="1 0 0 0 0  0 1 0 0 0  0 0 1 0 0  0 0 0 1 0"/>
				</filter>
			</defs>
			
				<mask maskUnits="userSpaceOnUse" x="958" y="258" width="141" height="141" id="mask-2_00000035501969976470081390000013495101474361330825_">
				<g style="filter:url(#Adobe_OpacityMaskFilter_00000070110409687848493650000012845033464586011018_);">
					<rect id="path-1_00000065764265014586766340000004472576167665209763_" x="-63" class="st1" width="1600" height="1200"/>
				</g>
			</mask>
			<circle id="Shape_00000088107973446540612920000012073979819858451847_" class="st36" cx="1028.5" cy="328.5" r="70.5"/>
			<defs>
				
					<filter id="Adobe_OpacityMaskFilter_00000042737762612869265790000013878246778898833072_" filterUnits="userSpaceOnUse" x="211" y="100" width="52" height="52">
					<feColorMatrix  type="matrix" values="1 0 0 0 0  0 1 0 0 0  0 0 1 0 0  0 0 0 1 0"/>
				</filter>
			</defs>
			
				<mask maskUnits="userSpaceOnUse" x="211" y="100" width="52" height="52" id="mask-2_00000049193656320247649600000015543975319124401844_">
				<g style="filter:url(#Adobe_OpacityMaskFilter_00000042737762612869265790000013878246778898833072_);">
					<rect id="path-1_00000126325475703485005500000014904786490121922989_" x="-63" class="st1" width="1600" height="1200"/>
				</g>
			</mask>
			<circle id="Shape_00000095311162257784585570000013107430411063698072_" class="st38" cx="237" cy="126" r="26"/>
			<defs>
				
					<filter id="Adobe_OpacityMaskFilter_00000024691518724982948750000015592193893795257745_" filterUnits="userSpaceOnUse" x="229" y="332" width="69" height="69">
					<feColorMatrix  type="matrix" values="1 0 0 0 0  0 1 0 0 0  0 0 1 0 0  0 0 0 1 0"/>
				</filter>
			</defs>
			
				<mask maskUnits="userSpaceOnUse" x="229" y="332" width="69" height="69" id="mask-2_00000058569552298314485210000006891949780930702496_">
				<g style="filter:url(#Adobe_OpacityMaskFilter_00000024691518724982948750000015592193893795257745_);">
					<rect id="path-1_00000081614556076298110660000001481172762806606751_" x="-63" class="st1" width="1600" height="1200"/>
				</g>
			</mask>
			<circle id="Shape_00000009557390548491295900000008840365377113322928_" class="st40" cx="263.5" cy="366.5" r="34.5"/>
		</g>
	</g>
</g>
</svg>
