{"accessors" : [{"bufferView" : 0, "byteOffset" : 0, "componentType" : 5123, "count" : 52512, "type" : "SCALAR", "max" : [40528], "min" : [0]}, {"bufferView" : 1, "byteOffset" : 0, "componentType" : 5126, "count" : 40529, "type" : "VEC3", "max" : [14.22700023651123, 36.38399887084961, 56.805599212646484], "min" : [-14.22700023651123, -20.123300552368164, 0.3366999924182892], "name" : "POSITION"}, {"bufferView" : 1, "byteOffset" : 12, "componentType" : 5126, "count" : 40529, "type" : "VEC2", "max" : [0.9944999814033508, -0.005100000184029341], "min" : [0.007600000128149986, -0.9958999752998352], "name" : "TEXCOORD_0"}, {"bufferView" : 1, "byteOffset" : 20, "componentType" : 5126, "count" : 40529, "type" : "VEC3", "max" : [0.999943733215332, 0.9992357492446899, 0.999931275844574], "min" : [-0.999943733215332, -0.9998682737350464, -1.0000044107437134], "name" : "NORMAL"}], "asset" : {"generator" : "Aspose.3D 22.3", "version" : "2.0"}, "buffers" : [{"uri" : "data:application/octet-stream;base64,", "byteLength" : 1785416}], "bufferViews" : [{"buffer" : 0, "byteOffset" : 0, "byteLength" : 105024, "target" : 34963}, {"buffer" : 0, "byteOffset" : 105028, "byteLength" : 1680384, "byteStride" : 32, "target" : 34962}], "meshes" : [{"primitives" : [{"attributes" : {"POSITION" : 1, "TEXCOORD_0" : 2, "NORMAL" : 3}, "indices" : 0, "mode" : 4}], "name" : ""}], "nodes" : [{"mesh" : 0, "name" : "12248_Bird_v1"}], "scene" : 0, "scenes" : [{"nodes" : [0]}]}