<?xml version="1.0" encoding="utf-8"?>
<!-- Generator: Adobe Illustrator 25.4.1, SVG Export Plug-In . SVG Version: 6.00 Build 0)  -->
<svg version="1.1" id="Layer_1" opacity="0.3" xmlns="http://www.w3.org/2000/svg" xmlns:xlink="http://www.w3.org/1999/xlink"
	 x="0px" y="0px" viewBox="0 0 1600 1200" style="enable-background:new 0 0 1600 1200;" xml:space="preserve">
<style type="text/css">
	.st0{fill:none;stroke:#5BE7C3;stroke-width:5;}
	.st1{fill:none;stroke:#DC2249;stroke-width:5;}
	.st2{fill:none;stroke:#FF8062;stroke-width:5;}
	.st3{fill:none;stroke:#F1B170;stroke-width:5;}
</style>
<g id="Patterns">
	<g id="Whangaehu">
		<g id="Shape" transform="translate(-146.000000, -400.000000)">
			<path class="st0" d="M693.8,774.1c-0.1-28.2-43.2-60-61.6-76.4c-36.4-32.4-74.2-62.3-111.7-92.7c-37.5-30.4-75.1-60.7-110.8-94
				c-23.2-21.7-50.5-46-66.2-77c-33.5-65.9,72.2-56.1,99.6-57.5c69.7-3.7,149.6-2,214.9-36.3c39-20.5,54.5-54.8,46.2-104.9
				c-2.7-16.3-10.7-35-3.9-50.9c7.2-16.9,23.9-26.7,37.6-33.3c50.3-23.9,108.2-26.7,161.4-29.7c57.4-3.3,115.4-2.3,172.4-2.6
				c24.2-0.1,49.4-10.7,72.4-19.3c30.2-11.3,60-24,89.9-36.2c65.8-26.9,133.7-55.3,203.4-62.1c43.6-4.3,91.3,1.5,125.2,38.8
				c17,18.7,25.9,46.5,35.8,71.2c11.9,29.8,23.3,60,36,89.3c40.8,94.6,99.1,187,193.8,191.7c14.3,0.7,28.4-1.6,42.6-2
				c9.1-0.3,17.2,2.4,20.5,14c8.5,29.1-18.2,75-29.1,98c-23.9,50.5-50.9,98.7-76.2,148.2c-16.7,32.7-45.7,77.4-46,117.2
				c-0.3,35.4,38.3,61,59.3,78.5c19.7,16.3,55.4,39.2,57.5,72.4c1,16.1-7.7,29.5-16.7,39.8c-15.9,18.1-34.3,30.9-48.6,51.6
				c-23.5,33.9-43.1,80.6-39.9,126.3c2.2,31.7,17,52.4,35.8,72.2c7.9,8.3,14.3,14.2,14.8,27.8c0.7,21.5-6.2,44.2-11.9,64.2
				c-20.3,71.3-49.2,140.2-81.3,204.6c-16,32.2-33.4,64.2-54.7,91.7c-13.9,18-32.7,39.5-54,39.4c-24.6,0-50.6-10.8-74.6-18.9
				c-44.7-15.1-88.8-32.7-132.8-50.6c-101.7-41.6-202.4-86.5-302.1-134.8c-70.3-34.1-142-68.2-208.1-113.5
				c-12.9-8.9-25-19.3-36.3-31c-12-12.3-27-17.8-42.1-21.9c-94.1-25.5-197.1-5.9-291.5,6.3c-24,3.1-47.9,6.2-72,8.4
				c-20.7,1.9-45.4,7.2-65.5-0.8c-39.6-15.9-5-74.3,9.6-98.1c51.5-83.8,117.9-154.8,179.5-227.2c29.3-34.5,58.8-68.9,86.5-105.3
				C665.5,829.7,693.9,798.8,693.8,774.1z"/>
			<path class="st1" d="M711.6,769.3c-15.8-29.9-43.5-52-66.5-72.8c-33.1-29.9-67.2-58.2-100.8-87.3c-31.8-27.5-63.6-55.3-93.1-86.5
				c-17.9-19-40.5-41.8-49-70c-18.4-61,80.8-51.8,105.2-53.4c60.9-4,129.9-4.9,186.2-37c35.2-20.1,49.6-53.4,42.1-99.6
				c-2.6-16-7.3-29.6-1.4-45.5c6.8-18.4,22.6-29.9,37-38c45.2-25.4,98.6-30.8,147.5-35.3c50.6-4.6,103.3-7.9,152.3-4.5
				c19.6,1.4,42.1-6.3,61.5-12.2c29.8-9.1,59.3-19.5,89-29.2c60.3-19.8,122.2-38.8,184.9-41c45.3-1.6,92.5,6.9,130.2,39.7
				c38.2,33.2,55.1,84.8,76.3,133.7c36.6,84.7,86,187.6,170.6,205.5c12.8,2.7,25.2,1.2,38,1.9c6.6,0.3,14.1,1.4,17.4,9.3
				c8.7,20.6-15.1,58.2-23.1,74c-22.1,43.6-47,85-70.1,127.7c-18.4,33.9-41.7,71.6-48.8,111.8c-8.6,48.8,47.8,83.5,67.6,117.9
				c34.4,59.6-30.8,93.5-62.9,122c-36.9,32.6-67.4,92.1-34.3,142.6c12.7,19.3,28.2,30.8,33.9,56c8.8,39.4,2.2,84.4-5,123.3
				c-10.8,58.5-27.9,116.4-51.1,169.3c-16.7,37.9-44.3,97.3-84.7,92.8c-27.2-3-54.9-13.8-81.4-23.4c-39.7-14.4-78.9-30.7-117.9-47.7
				c-90-39.2-179-82.3-266.3-129.8c-59.5-32.4-225.6-164.9-238.1-169.6c-37.3-14.1-79.6-11.6-118-9.4c-51.1,2.9-102,10.4-152.8,17.4
				c-24.2,3.3-48.5,7.3-72.8,8.9c-17.3,1.2-40,2.1-55.2-10.1c-29.6-23.9,3.4-78.7,17-101.9c41.8-71.1,94.6-132.6,144.1-195.6
				c24.3-30.9,49-61.7,71-95.1C699,814.8,721.3,787.8,711.6,769.3z"/>
			<path class="st0" d="M733.4,754c-43.1-59.8-102.6-104.3-154-154.2c-25.8-25.1-51.7-50.8-73.9-80.7c-11.6-15.5-26-35.2-28.2-56.8
				c-6-57.9,83.5-50.1,110.2-52.3c51.7-4.3,110.2-7.5,157.1-37.1c28.7-18.1,42.8-47.7,37.4-86.7c-2.4-17.3-6.1-32,0-49
				c6.2-17.2,19-29.3,32-38.4c37.3-26.2,83.7-34.5,125.7-40.8c49.3-7.3,99-10.1,148.6-8.5c43.5,1.4,86.7-14.3,129.2-24.6
				c56.2-13.7,113.5-25.6,171-23.8c45.4,1.4,91.3,12.7,130.1,42.6c39.5,30.5,63.2,76.1,84.6,125.3c32.3,74.4,72.7,174.1,143.6,202.3
				c10.3,4.1,19.9,4.6,30.6,5.3c5.2,0.3,11.8,0.5,14.4,7c6.2,15.8-16.6,46.6-23,57.3c-20.3,34.2-42.3,66.8-63.2,100.5
				c-19.4,31.5-40.6,64.3-52.7,101.2c-19.2,58.8,42.2,93.1,40.5,149.1c-1.1,34.8-28.4,59.7-50,76.9c-26.6,21.2-64.9,35.1-78.2,73.8
				c-9.9,28.8,5.6,45.6,17.6,67.5c20.3,37.1,21.7,87.3,19.6,130.2c-2.8,58-14,116.8-32.9,170.1c-8.6,24.2-19.1,49.3-34.6,68
				c-14.5,17.6-28.2,22.1-47.6,18.5c-59.4-11-119.3-41.8-176.2-69.3c-71.5-34.5-142-72.6-210.5-115.5
				c-46.7-29.2-94.4-60.2-135.3-100.6c-10.7-10.5-21.6-22-29.4-35.9c-5.9-10.4-8.4-19.1-18.3-25c-29.5-17.7-70.5-13-102.1-11.2
				c-50.5,2.9-100.7,10.7-150.9,17.7c-29.3,4.1-84.5,17.1-107.8-14c-20.2-26.8,4.2-72.6,16.6-96.2c31.5-59.8,72-112.2,109.5-166.2
				c17.2-24.8,35.1-49.7,49.3-77.2c3.6-7,9.5-16.3,10.5-24.8C743.9,768.8,738.7,761.4,733.4,754z"/>
			<path class="st1" d="M737.1,767.9c-39.8-52.9-87.8-96.3-130.6-145.8c-19.2-22.2-38.5-45.5-53.2-72.5c-7.9-14.6-16.2-32.9-14-51
				c6.2-51.9,79.8-47.2,109.5-50.3c44.1-4.5,94.9-9,133.9-37c25.6-18.3,35.2-45.4,30.4-80.3c-5.1-37.5,6.3-64.7,32.4-85.6
				c32.7-26.2,74-36.9,111.9-44.4c45.7-9.1,92-13.1,138.4-12c45.1,1.1,88.7-8.2,133.5-14.2c59.3-7.9,120.6-11.9,179.3,4.4
				c51.1,14.2,97.2,45.4,131.8,93.7c36.1,50.4,54,113.9,83.4,169.6c18.3,34.8,43.8,80.8,78,94.3c11.4,4.5,32.2-1.6,23.1,20.6
				c-5.2,12.7-14.9,23.8-22.6,34.2c-12.4,16.8-25.3,33-37.9,49.6c-27,35.2-55.8,71.2-76,112.9c-25.5,52.5,12.4,92.9,7.8,146.2
				c-2.5,28.7-18.8,51.5-36.1,69.5c-11.2,11.6-23.4,21.7-35.9,31.1c-13,9.8-28.5,17.3-39.8,30c-16.2,18.1-9.2,39.5-6.1,62.8
				c5.3,41.1,6.5,82.8,3.5,124.2c-3.7,50.8-12.4,103-30.7,149.1c-7.1,18-16.1,37-29.5,49s-27.2,11.2-42.5,7.6
				c-45.5-10.7-90.8-35.6-133.9-59.3c-54-29.6-106.9-62.6-157.4-100.2c-34.9-26-69.9-54-99.1-89.2c-8.5-10.2-16.6-21.2-23.1-33.5
				c-4.5-8.4-6.9-19.2-13.4-25.5c-20.3-19.7-61.1-13.8-85-12.7c-47.6,2.3-94.4,13.1-141.9,15.8c-25.9,1.4-66.5,5.1-85.6-21.9
				c-17.9-25.3-1.7-65.2,9-89.6c21-48,49.3-90.7,74.6-135.3c10.4-18.4,21.8-37.6,28.6-58.5C757.7,795,747.3,781.5,737.1,767.9z"/>
			<path class="st2" d="M746.9,768.8C715.2,722.3,677,681,645.1,633.7c-18.7-27.7-50.9-74.2-36.4-113.3
				c15.9-42.9,71.1-44.1,103.1-47.5c38-4.1,82.7-9.7,115.3-36.5c10.3-8.5,19.1-19.7,22.8-34.4c4-15.8-0.4-29.6-0.9-45.4
				c-1.2-33.2,15-59.8,36.5-78.1c30.4-25.9,68.3-38.1,104.2-46.6c40.6-9.6,81.9-14.4,123.3-14.2c39.5,0.2,78.7-0.9,118.3-2.1
				c51.8-1.6,104.3,1,154.5,17.8c49.5,16.5,94.4,47.5,129.8,93.1c34.5,44.5,57.7,98.9,78.1,154.3c11.6,31.4,31.1,78.4,58.6,94.3
				c12.3,7.1,24.3,6.6,11.3,25c-16.4,23.1-38.5,41.7-57.5,61.5c-27.4,28.6-55.5,57.7-78.6,91.7c-14.7,21.7-21.3,42.7-20.2,70.8
				c0.8,21.4,4.3,42.6,2.5,64.1c-4.2,50.4-36.7,85-65.5,117.2c-18.5,20.7-35.4,36.5-44.9,66c-11.3,34.8-16,72.7-23.5,108.8
				c-8.3,39.7-17.8,81-35.9,115.9c-16.1,31.1-35.6,45.1-64.9,36.7c-45.6-13.1-90.6-45.3-131.1-75c-41.2-30.3-81.7-64.4-115.9-106
				c-18.4-22.5-31-48.9-47.4-73.1c-20.6-30.3-67.2-18.8-94.9-16.3c-46,4.3-190.7,36.2-177.3-67.2c5.6-43.1,27.5-82.9,43.6-121
				c6.7-15.8,16.3-34.7,17.8-52.8C771.2,801.5,756.5,782.8,746.9,768.8z"/>
			<path class="st3" d="M763.7,772.7c-24.2-42.2-53.2-82-74-127.5c-13.5-29.5-26.7-68.9-9.3-100.1c19.6-35.2,62.9-43.4,94.8-47.9
				c32.8-4.6,71.9-8.5,98.7-35.2c8.5-8.5,15.6-20,16.9-33.7c1.3-13.2-2.3-26.3-1.1-39.8c2.6-30.1,17.6-54.9,36.9-72.9
				c57.1-53.2,142-65.1,210.9-66.5c34.5-0.7,69.9,2.9,104.6,5.5c45,3.4,90.1,10.6,133,28.1c91.3,37.1,152.5,119.4,195.2,221.9
				c13.4,32.2,23.7,67.1,44.8,93c10.9,13.4,8.5,23-2.6,35.2c-17.4,19.1-38.5,33.6-57.8,49.6c-27.4,22.6-55.4,45.6-79.7,72.7
				c-16.7,18.7-28.6,36.7-32.2,64.7c-2.6,20-2,40.3-3.5,60.5c-2.9,38.2-13,76.1-30.8,107.8c-14.2,25.1-31,47.9-48.4,69.7
				c-22.7,28.3-41.8,57.1-59,90.7c-22.8,44.5-54.9,126.6-108.6,104.9c-59.3-24-114.8-84.9-152.8-143.9
				c-12.8-19.8-23.2-44.1-40.5-58.7c-25.8-21.8-51.9-21.1-82.6-21c-45.9,0.1-145.8,12.3-146.9-71.6c-0.4-33.2,11.4-64.7,17-96.7
				C793,825.6,780.2,801.5,763.7,772.7z"/>
			<path class="st0" d="M781.7,776.5c-24-55-77.7-145.3-36.8-206.4c21.6-32.3,59.8-44.4,91.8-51.7c25.8-5.9,56.9-8,76.4-32.8
				c14.3-18.2,8-44.8,13.4-67.6c6.8-28.3,22.4-51.5,41.6-68.9c53.7-48.6,128.3-63.6,192.8-66.7c67-3.3,140.9,12.1,204,41.7
				c78.7,36.9,137.6,106.9,178.8,195.4c7.6,16.3,14.5,33.1,21.8,49.7c4.9,11.1,12.2,21.8,16,33.5c6.4,19.5-1.1,35.4-13.3,48.1
				c-17.5,18.3-39,31.3-58.9,45c-27.3,18.8-55.1,37.2-80.5,59.2c-17,14.8-34.9,30.8-41,56.5c-4.2,17.5-5,36.1-4.9,54.2
				c0.3,38.9-1.3,70.4-16.2,106c-24.5,58.5-62.2,111.1-101.9,154.9c-31.2,34.4-80.6,87.7-126.1,64.8
				c-40.8-20.6-64.7-69.8-91.6-109.6c-13.1-19.4-27.8-37-45-50.8c-21.8-17.4-42.2-24.6-68-27.5c-43.4-4.8-108.8-6-122.2-69.5
				c-5-23.4-2.1-47.7-4.7-71.5C803.7,831.1,793.8,804.2,781.7,776.5z"/>
			<path class="st2" d="M806.6,778.5c-17.1-60.1-39.5-135.9,1.7-189.4c20-25.9,48.1-40.4,75.2-51.2c19.5-7.8,50.4-10,62.3-33.9
				c8.8-17.5,10-41.7,17.9-60.5c10.9-25.8,27.4-47.1,46.8-63.8c50.5-43.4,116.2-60.2,176.1-65c130.2-10.4,262.7,72.6,332.4,209.1
				c20.8,40.7,47.6,84,14,125.6c-36.7,45.4-91.9,66.6-135.6,98.8c-16.7,12.3-38,27.1-47.3,49.4c-5.6,13.4-6,30.2-6.3,44.9
				c-0.7,37.6-3.2,71.3-15.6,106.4c-19.1,54.2-49.6,104.1-84.1,145c-30.1,35.7-73.1,77.6-116.8,51.9c-33.5-19.8-54.8-61.7-80.9-92.7
				c-29-34.4-64.9-57.7-104.2-69c-38.3-11-80.3-18.4-100.5-65.2c-6.9-16-14.2-36.8-16.8-54.6C820.8,835.4,814.7,806.6,806.6,778.5
				L806.6,778.5z"/>
			<path class="st3" d="M834.4,779c-7.9-60.7-8.8-124,27.9-171.9c17.1-22.3,38.8-38.2,60.6-52.6c16.1-10.6,32.7-19.5,44.8-36.8
				c11.1-16.1,19.6-34.7,30.4-51.2c14.2-21.8,31.2-40.7,50.3-56c47.9-38.1,106.2-56,162-62.1c27-3,56.3-4.6,83.1,3.6
				c25.9,7.9,51.5,20.4,75.3,35c50.6,31,94.5,76.3,126.3,133.6c21.8,39.3,33.6,77.5,5.4,117.4c-31.8,45-81.7,69.8-122.9,98.9
				c-28.2,20-59.8,39.6-65.1,82.2c-4.2,33.8-7.6,66-18.5,97.9c-16.2,47.2-39.9,89.9-69.9,125.7c-27.4,32.6-62,60.2-101.2,42.8
				c-31-13.8-55.1-44.8-82.2-66.9c-30.2-24.7-63.4-38.3-98.4-49.3c-31.4-9.9-61-25.1-81.3-57.3c-4.2-6.6-8.5-13.8-11.7-21.1
				c-4.1-9.4-3.8-18.7-4.6-29.3C842.4,833.9,838,806.4,834.4,779z"/>
			<path class="st0" d="M865.1,774c0.7-57.7,12-112.2,43.2-157.1c13.3-19.2,29.2-35.1,43.8-52.7c11.8-14.2,22.9-27.4,36.5-39.1
				c32.2-27.7,58.3-63.6,92.5-88.3c45.6-33,97.9-51.2,149.7-58.5c25.3-3.6,51.5-4.8,77.1-0.8c22,3.5,43.1,15.6,62.6,28
				c38.3,24.3,75.5,58.9,100.4,102.6c54.8,96.4-53.3,166.5-108.8,207.5c-25.5,18.9-64.5,40.7-75,78.1c-7.5,26.7-12,53.9-21.7,79.8
				c-25.9,69.5-78.3,151.3-148.3,140.4c-29.9-4.7-57.2-23.6-85.1-36.2c-28.8-13.1-58.5-20.3-88.4-28.3
				c-27.9-7.5-50.2-18.1-68.3-46.6c-8.6-13.6-7.9-29.9-8.6-46.6C865.5,828.9,864.8,801.3,865.1,774z"/>
			<path class="st1" d="M893,766.6c11.2-87.1,53-182.1,114.3-232.7c72.2-59.5,150.4-109.6,236.6-123.9c40-6.7,83.8-10,121.5,11.9
				c28.7,16.6,62.1,41.4,77.9,76.3c38.7,85.4-47.3,153.3-96.3,192.8c-26.4,21.3-60,42-79.8,73c-11.5,18-17.4,41.8-26.7,61.6
				c-28.2,59.9-74.7,108.2-132.5,116.9c-26.8,4-53.7-0.9-80.3-4.9c-27.2-4-54.7-6.2-81.7-11.8c-21.6-4.5-47-12.1-54.9-40.2
				C881,850.1,888.4,802.2,893,766.6z"/>
			<path class="st3" d="M920.3,752.6c16.4-81.8,51.1-161.7,109.4-210.5c30.9-25.9,66.8-43.8,101.3-61.5
				c39.1-20,79.9-35.6,121.6-43.3c51.9-9.6,136-18.3,163.2,53.9c26.9,71.7-41.1,135.1-81.4,171.3c-25.8,23.2-53.4,44.4-78.1,69.7
				c-13.4,13.7-23.7,29.6-35,45.7c-31.3,44.6-75.8,79.9-121.3,98.8c-44,18.3-98.5,26.4-145,20.3c-20.1-2.6-34.4-11.4-40.4-36.2
				C906.4,826.2,913.6,786.4,920.3,752.6z"/>
			<path class="st2" d="M947.5,730.6c16.3-72.1,51.4-137.9,102.6-181.1c57.4-48.5,131.3-75.4,199.3-89.1
				c36.1-7.3,114.4-27,132.8,29.5c18.4,56.5-34.8,112.1-65.4,142.7c-37.2,37.1-77.3,73-117.3,106.3c-34.8,29-71.9,58.6-109.6,80.9
				c-21.2,12.7-43.4,23-66.1,31c-16.9,5.8-38.3,14.5-56,10.1C923.2,849.9,939.7,765,947.5,730.6z"/>
			<path class="st1" d="M981.1,709c35.7-136.3,148.9-203.3,257.9-226.7c25.3-5.4,96.3-25,110.5,16.7c13.7,40.4-29.9,88.2-50.3,110.9
				c-63.3,70.3-141.5,122.4-215.5,174c-23.1,16.1-64.8,51.1-93.5,34.9C958.9,801.3,973.7,737.3,981.1,709z"/>
			<path class="st1" d="M1017.7,682.8c31.1-100.4,121.4-157.9,204.5-176.9c20.3-4.6,72-19.1,87.4,8.9c14.3,25.9-19.8,63.4-32.5,78.4
				c-28.3,33.2-61.9,60.6-95.1,86.9c-30.7,24.3-61.7,49.3-94,69.9c-17,10.8-48.9,34-68.2,17.2
				C998.9,749.1,1010.8,705.1,1017.7,682.8z"/>
			<path class="st0" d="M1058,653.4c23.7-65.5,87.1-108.1,143-122.2c15.1-3.8,47.6-13.6,60.3,3.9c11.7,16.1-7.2,39.8-15.5,50.7
				c-37.1,48.4-91.3,91.6-141,118.1c-12.5,6.7-35,19.8-47.8,6.3C1043.7,696.3,1052.5,668.5,1058,653.4z"/>
			<path class="st3" d="M1100.7,625.9c13.3-32.5,48.2-57.1,77.1-64.9c20.3-5.5,44.8-0.7,27,27.6c-17.6,28.1-50.3,53.8-77.9,65.2
				C1105.8,662.4,1089.3,653.9,1100.7,625.9z"/>
		</g>
	</g>
</g>
</svg>
