<?xml version="1.0" encoding="utf-8"?>
<!-- Generator: Adobe Illustrator 25.4.1, SVG Export Plug-In . SVG Version: 6.00 Build 0)  -->
<svg version="1.1" id="Layer_1" xmlns="http://www.w3.org/2000/svg" xmlns:xlink="http://www.w3.org/1999/xlink" x="0px" y="0px"
	 viewBox="0 0 1600 1200" style="enable-background:new 0 0 1600 1200;" xml:space="preserve">
<style type="text/css">
	.st0{fill:#EFF3F0;}
	.st1{fill:#E0436B;}
	.st2{fill:#7252A4;}
	.st3{fill:#F0C933;}
	.st4{fill:#453264;}
	.st5{fill:#0F90D1;}
	.st6{fill:#C4C8D4;}
	.st7{fill:#6759AE;}
</style>
<desc>Created with Sketch.</desc>
<g id="Patterns">
	<g id="Waimakariri">
		<g id="Shape" transform="translate(-414.000000, -380.000000)">
			<path class="st0" d="M1698.3,772.8c-169.6-181.1-399.5-185.4-607.9-63s-244.5,418.5-64.8,607.7c179.8,189.3,431.3,224.7,607.9,63
				S1867.9,953.9,1698.3,772.8z"/>
			<path class="st0" d="M653.6,247c-76.3-66.2-196.6-99.4-283.1-29.4c-86.5,70-100,196.7-30.1,283s187.8,81.6,283.1,29.4
				C718.8,477.8,729.9,313.2,653.6,247z"/>
			<path class="st0" d="M659.9,1157.8c112.3,112.7,196.9,269.1,301.9,372.8c104.9,103.7,85.3,286.3-40.9,388.4
				s-296.4,72.9-388.5-40.8c-92.1-113.7-224.1-237.9-301.9-372.8c-77.8-134.9-77.7-292.4,40.9-388.4S547.6,1045.1,659.9,1157.8z"/>
			<path class="st1" d="M1890,478.6c-67.4-109-203.6-87.5-296.1-31.1s-104.3,205.7-31.1,296.1s201.5,107.7,296.1,31.1
				C1953.4,698.1,1957.4,587.6,1890,478.6z"/>
			<path class="st1" d="M1578.6,1371.3c-21.4-34.6-64.6-27.8-93.9-9.9s-33.1,65.3-9.8,93.9c23.2,28.7,63.9,34.2,93.9,9.9
				C1598.8,1440.9,1600,1405.9,1578.6,1371.3z"/>
			<path class="st1" d="M1978.8,431.6c-14-22.7-42.4-18.2-61.7-6.5c-19.3,11.7-21.7,42.9-6.5,61.7s42,22.4,61.7,6.5
				C1992.1,477.3,1992.9,454.3,1978.8,431.6z"/>
			<path class="st1" d="M1405.8,1387c-4.3,11.8,0.8,22.3,11.1,28.9c10.3,6.6,24.5,1.4,28.9-11.1c4.4-12.5,0.2-24.7-11.1-28.9
				C1423.3,1371.7,1410.1,1375.2,1405.8,1387z"/>
			<path class="st2" d="M790.7,429.9c-35.4-57.3-107-46-155.6-16.4c-48.6,29.6-54.8,108.1-16.3,155.6s105.9,56.6,155.6,16.4
				C824,545.3,826.1,487.2,790.7,429.9z"/>
			<path class="st2" d="M1516.8,715.6c-14-22.7-42.4-18.2-61.7-6.5c-19.3,11.7-21.7,42.9-6.5,61.7s42,22.4,61.7,6.5
				C1530.1,761.3,1530.9,738.3,1516.8,715.6z"/>
			<path class="st2" d="M1425.3,753.5c-6.4-10.3-19.3-8.3-28-3c-8.8,5.3-9.9,19.5-2.9,28c6.9,8.6,19.1,10.2,28,3
				C1431.3,774.3,1431.6,763.9,1425.3,753.5z"/>
			<path class="st2" d="M1110.4,1481.5c-31.9-39.4-84.3-43.3-129.5-13.4s-50.4,93.7-13.9,129.5c36.5,35.7,95.9,68.7,128.4,42.3
				C1128,1613.5,1142.4,1520.9,1110.4,1481.5z"/>
			<path class="st3" d="M1700.4,958.4c-69.2-73.8-162.9-75.6-247.9-25.7c-85,49.9-99.7,170.7-26.4,247.9
				c73.3,77.2,175.9,91.7,247.9,25.7C1746.1,1140.3,1769.6,1032.2,1700.4,958.4z"/>
			<path class="st3" d="M610.9,1069.1c-26.2-28-61.7-28.6-93.9-9.7c-32.2,18.9-37.7,64.6-10,93.8s66.6,34.7,93.9,9.7
				C628.2,1138,637.1,1097.1,610.9,1069.1z"/>
			<path class="st3" d="M1449.9,1222.3c-8.6-9.2-20.2-9.4-30.8-3.2s-12.4,21.2-3.3,30.8c9.1,9.6,21.9,11.4,30.8,3.2
				C1455.6,1244.9,1458.5,1231.4,1449.9,1222.3z"/>
			<path class="st3" d="M534.9,1191.3c-8.6-9.2-20.2-9.4-30.8-3.2c-10.6,6.2-12.4,21.2-3.3,30.8c9.1,9.6,21.9,11.4,30.8,3.2
				C540.6,1213.9,543.5,1200.4,534.9,1191.3z"/>
			<path class="st3" d="M1414.3,1183.1c-4.3-4.6-10.1-4.7-15.4-1.6c-5.3,3.1-6.2,10.6-1.6,15.4s10.9,5.7,15.4,1.6
				C1417.2,1194.4,1418.6,1187.7,1414.3,1183.1z"/>
			<path class="st4" d="M1156.9,846.1c-26.2-28-61.7-28.6-93.9-9.7c-32.2,18.9-37.7,64.6-10,93.8s66.6,34.7,93.9,9.7
				C1174.2,915,1183.1,874.1,1156.9,846.1z"/>
			<path class="st4" d="M1897.9,845.3c-8.6-9.2-20.2-9.4-30.8-3.2c-10.6,6.2-12.4,21.2-3.3,30.8s21.9,11.4,30.8,3.2
				C1903.6,867.9,1906.5,854.4,1897.9,845.3z"/>
			<path class="st4" d="M641.9,1348.3c-8.6-9.2-20.2-9.4-30.8-3.2c-10.6,6.2-12.4,21.2-3.3,30.8c9.1,9.6,21.9,11.4,30.8,3.2
				C647.6,1370.9,650.5,1357.4,641.9,1348.3z"/>
			<path class="st4" d="M1132.9,962.4c-10.8,6.5-13.4,17.9-9.5,29.5c3.9,11.6,18.2,16.5,29.5,9.6c11.3-6.9,15.7-19,9.5-29.5
				C1156.2,961.6,1143.7,955.9,1132.9,962.4z"/>
			<path class="st5" d="M489.9,669.1c-26.2-28-61.7-28.6-93.9-9.7c-32.2,18.9-37.7,64.6-10,93.8c27.7,29.2,66.6,34.7,93.9,9.7
				C507.2,738,516.1,697.1,489.9,669.1z"/>
			<path class="st5" d="M2125.8,1347.6c-95.2-117.6-251.1-129.3-385.8-40.2c-134.6,89.1-149.7,279.1-40.9,385.7
				c108.8,106.6,279.1,126.6,385.8,40.2S2221.1,1465.2,2125.8,1347.6z"/>
			<path class="st5" d="M814.3,780.3c81.9,82.3,143.7,196.3,220.3,272c76.6,75.7,62.2,208.9-29.8,283.4s-216.2,53.2-283.4-29.8
				s-163.5-173.6-220.3-272s-56.7-213.4,29.8-283.4S732.3,698,814.3,780.3z"/>
			<path class="st6" d="M978.7,602c-35.4-37.8-83.3-38.7-126.8-13.1c-43.5,25.5-51,87.3-13.5,126.7c37.5,39.5,89.9,46.9,126.8,13.1
				C1002,695,1014,639.7,978.7,602z"/>
			<path class="st6" d="M2279.6,1050c-96.9-103.5-228.3-105.9-347.4-36s-139.7,239.1-37,347.3c102.7,108.1,246.5,128.4,347.4,36
				C2343.6,1304.9,2376.6,1153.5,2279.6,1050z"/>
			<path class="st6" d="M548.6,1435c-96.9-103.5-228.3-105.9-347.4-36c-119.1,69.9-139.7,239.1-37,347.3
				c102.7,108.1,246.5,128.4,347.4,36C612.6,1689.9,645.6,1538.5,548.6,1435z"/>
			<path class="st0" d="M589.1,584.3c-12.5-10.8-32.1-16.3-46.2-4.8s-16.3,32.1-4.9,46.2c11.4,14.1,30.7,13.4,46.2,4.8
				C599.8,622,601.6,595.1,589.1,584.3z"/>
			<path class="st0" d="M860.1,428.2c-7.6-6.6-19.4-9.9-28-2.9c-8.5,6.9-9.9,19.5-3,28s18.6,8.1,28,2.9
				C866.5,451,867.6,434.7,860.1,428.2z"/>
			<path class="st7" d="M1230.3,157.5c76.7,94.8,142.2,175.6,220.3,272c78.1,96.4,48.2,202.9-29.8,283.4
				c-78,80.5-225.6,62.2-283.4-29.8c-57.8-92-150.2-185.5-220.3-272s-56.7-213.4,29.8-283.4S1153.5,62.7,1230.3,157.5z"/>
		</g>
	</g>
</g>
</svg>
