<?xml version="1.0" encoding="utf-8"?>
<!-- Generator: Adobe Illustrator 25.4.1, SVG Export Plug-In . SVG Version: 6.00 Build 0)  -->
<svg version="1.1" id="Layer_1" xmlns="http://www.w3.org/2000/svg" xmlns:xlink="http://www.w3.org/1999/xlink" x="0px" y="0px"
	 viewBox="0 0 512 512" style="enable-background:new 0 0 512 512;" xml:space="preserve">
<style type="text/css">
	.st0{fill:#FFFFFF;}
</style>
<path class="st0" d="M42.6,17.5C23.2,22.9,6.7,39.5,1.5,59c-2.2,8.2-2.2,385.8,0,394c5.2,19.7,21.8,36.3,41.5,41.5
	c8.3,2.2,417.7,2.2,426,0c19.7-5.2,36.3-21.8,41.5-41.5c2.2-8.2,2.2-385.8,0-394c-5.2-19.7-21.8-36.3-41.5-41.5
	C461.1,15.4,50.2,15.4,42.6,17.5z M344.3,104.5c19.9,5.2,35.7,21.1,40.6,40.9c1.5,6.2,1.6,18.8,0,25.2
	c-4.6,19.3-20.6,35.9-39.5,40.9c-7.2,1.9-20.1,2.1-26.9,0.4c-35-8.6-52.6-47-36.4-79.1c4-7.9,15.4-19.5,22.9-23.3
	C317.1,103.3,332.2,101.3,344.3,104.5z M186.9,219.1c4.4,2.7,0.1-2.7,55.1,69.1c26.5,34.5,49.5,64.1,51.1,65.8
	c5.2,5.1,8.6,6.5,16.9,6.5c5.4,0,8.5-0.6,11-1.9c1.9-1,10.5-8.7,19-17.1s17.1-16.1,19-17.1c4.4-2.3,13.3-2.3,17.6-0.1
	c1.8,0.9,4.6,3,6.2,4.7c3,2.9,60.8,84.7,65.1,92.2c5.4,9.1,4.4,15.4-3.1,18.8c-4.2,1.9-8.1,2-183.8,2c-123,0-180.7-0.3-183.3-1.1
	c-2.1-0.5-5.2-2.3-6.9-3.8c-2.5-2.2-3.2-3.7-3.6-7.9c-0.3-3.1,0.1-6.5,0.9-8.4c2.9-7.2,97.3-193.5,99.6-196.6
	C173,217.1,180.4,215.1,186.9,219.1z"/>
</svg>
